<svg
    viewBox="0 0 75.475 83.545"
    class="tasmania"
  >
  <path
      id="path487"
      stroke-linecap="round"
      stroke="current"
      fill="black"
      strokeWidth="0.1"
      stroke-miterlimit="10"
      d="m17.718 8.0775 1.3-0.58 0.57 1.73 3.46 1.15-0.14 1.01 1.72 1.58 2.74 1.01 3.74 2.74 1.59 0.29v0.57l0.14-0.72 1.87 0.43 0.15 0.87 0.14-0.58h1.87l1.59-1.01 0.43 2.02-0.43 1.3 0.57-0.87 0.29 1.44 0.15-1.29-0.44-0.44 0.58-1-0.72 0.14v-0.43l1.15-0.29 0.87-1.01 0.57 0.15 0.72-0.72 1.44 1 0.29 1.16-1.01 0.57 1.01-0.29 0.14 1.3h0.44l-0.29-0.86 0.43 0.28 0.43-0.57 0.87 0.72-0.58 1.15 0.58-0.86h0.57l-1.29-1.44h-1.01l-0.58-2.16 2.02-0.72 1.44 0.28 1.44-1 2.01 0.57 0.72 0.58-0.43 0.57 3.17-2.16 0.29 0.44 0.86-0.29 0.87 2.01 0.86-0.14 1.73-1.15 1.87-2.59 1.58-0.58 0.58 1.3 1.01-0.15 0.29 0.72 1.29 0.29 1.01-0.58-0.29 0.58h0.58l-0.43-0.29 2.01-2.45-0.43-0.86 1.44 0.29 0.43 0.86h0.87l0.72 1.59 0.86 0.28-0.43 0.15 0.57-0.43 0.72 0.72 1.3 3.74 0.72 0.43-1.44 1.44 0.14-0.72-0.86 0.58 0.72 0.29-1.58 3.45 0.57 0.58-0.14 1.15 1.01 0.14-0.72 1.01-0.44-0.57-0.28 0.86-1.16 0.14 1.01 0.44 1.44-1.3 0.43 0.14-1.87 2.16-0.57 2.16-0.58-0.14 0.58 0.29-0.15 0.86-0.29-0.43 0.87 2.45-1.01 2.59v2.02l-1.15 2.01 0.86 2.31-1.58 3.02 1.29 1.87-1.15 1.59 1.01 0.43-0.29 1.01-1.44 1.44-0.57-1.3 1-1.01-0.57-0.86 1.01-0.72-1.01-0.43-0.29-1.3-1.3-0.29 2.02-1.58-0.72-0.87 0.14-0.43-0.43 0.58 0.29 0.86-0.43 0.43-0.58-0.72-0.57 1.3 0.14-0.43 0.29 0.43-1.3 0.72 2.45 0.72-3.02-0.14-0.15 1.58-1.58 1.73-0.58 1.73-1.58 0.72 0.57 0.43 0.72-1.15 0.58 0.14v1.01l-1.01 1.29-0.14 0.87 0.43 0.43-0.29 1.58-1.44 0.87-0.43-1.15-0.14 0.86-0.72 0.29 1.15 1.44-0.43 0.57 0.43 0.72-0.58-0.28 0.43 0.86-0.43 1.3-1.58 1.15-0.15 1.73-0.28-0.72-1.3 1.72 1.73 0.58v-0.58l-0.72-0.28 0.72-0.72h0.57l0.15 0.86 0.72-0.14 0.14 2.59-1.73 1.44 0.72 2.3-0.57 0.87h1.01l-1.16 1.29 0.72 0.87-2.01-1.01-0.29-2.31-0.43 1.16h0.43l-0.14 1.29-1.01-0.29-0.58 1.3-1.73-2.16-0.14-0.86 1.3-1.01-1.73-0.29-0.29-2.16 1.3-0.43 0.28-1.44 0.87 0.43-0.58 1.44 0.29 0.58 0.29-0.29v0.72l1.58 0.72 0.29-0.72 0.14 0.72 0.44-0.87 1-0.14-1.58-0.43 0.43-0.58-0.72-0.57h0.72l0.29-0.58-0.86-0.14v-1.16l-0.72 0.29-0.87-0.57-0.86 0.28-0.58-0.28 0.72-0.72h-1.44l0.15-2.31-0.87 0.29-0.14-0.72-0.15 0.86-0.28-0.57-0.72 0.43-0.58-1.3 0.14 0.58-0.43 0.14 0.72 1.16 0.72-0.29v0.43l1.73 0.58-0.86-0.29-1.3 0.57-0.43 1.3 0.57 1.3-0.43 0.14 0.29 0.43 0.29-0.57 0.14 0.72-0.72 0.86-2.16 0.43-0.14-1.87 0.29-0.29 0.14 1.59 0.86 0.14 0.29-1.15-0.57-0.58 0.57-1.01 0.43 0.15-0.14-0.43-0.86-0.15-0.58 0.72 0.14-1.29-1-0.44 0.28-0.72-1.29-1.29v-1.3l-1.3-0.86-0.72 0.57 0.87-0.28 0.72 0.86 0.43 0.58-0.43 0.72 1 0.43 0.44 2.73-0.87 1.3-0.14 2.02h-0.58l-0.29-1.44-0.43 0.43-0.29 1.15 0.72 0.43-1 0.87-0.29 2.88-1.15 1.29-2.31-1.44 0.72-0.86-0.29-1.01-0.72 1.44-1.44-1.01 0.44-1.87-0.72 0.86v1.3l1.58 1.3 0.43 1.29-0.72 0.87-0.43-0.58-1.3 0.29 1.44 0.72-0.86 1.29v1.01h-1.58l-0.29-0.86-0.29 0.86 1.15 0.29 0.29 0.72-1.15-0.14v0.86l0.72-0.58-0.58 1.16-0.86 0.28-0.15-0.86-0.43 1.01v0.72l0.58-0.29v0.72l-2.16 1.01 0.29-0.58-0.58-0.57-2.02 0.72-0.14-1.01-0.58 0.14v-0.57l-1-0.72-0.29-2.45-0.43 1.01 0.57 0.86-1.29-0.72-0.58 0.43-1.44-0.14-1.15-0.72-1.01 0.57-0.29-1.15-0.72-0.29-0.72 1.16-0.86-1.16-0.87 1.3-0.57-0.43-1.01 0.86 0.29-2.88-0.87-2.16-0.86-0.14 1.15-0.58 0.15 1.01v-1.73l1.72 1.3-0.28-0.72 1.29 0.29 0.15 1.29v-0.57l0.28 0.43 0.44-0.87 0.72 0.29v0.58l0.43-1.59h-1.01v-0.86l-1.3 1.3-0.57-0.44-0.15-1-0.28 0.86h-1.01l-0.72-1.3 0.29-1.44-0.87-0.72 0.43-0.57-0.43 0.14 0.15 1.44-1.3 0.58 0.29 0.43 0.86-0.58v1.01l-1.15 0.43-0.58-0.28 0.29-0.58-0.57-0.43-0.15-1.87-0.72-0.29-0.29-2.31-0.57 0.15-0.58-0.72 0.43-1.01-0.72-0.43-0.72-1.87-1.87 0.28 0.15-1.15-0.58-1.15-1.01-3.6 0.43-1.3-0.43-1.72-0.57-0.15-0.44-1.15-0.86-0.14 1.01-1.01-0.87-1.44 0.44-2.31-0.58-2.73 0.43-1.3-0.72-2.16 1.01 0.43 0.43 2.02h1.3l-0.15 1.01 2.16 1.87 0.15 3.74 0.29-2.16-0.44-0.14 0.87-0.43 0.57 0.86-0.28-0.57 1.15-1.73-0.87 0.29 0.29-0.29-0.57-1.01-0.29 1.01-0.29-1.15-1.58-2.02-0.44-2.74-0.43-0.14 0.15 0.72-1.01 0.58 0.29 0.72-1.16-0.29 1.16-3.03-0.44-2.59-4.17-7.77-0.87-0.29v-0.87l1.01-0.86-1.01 0.14-0.72-3.31-1.72-3.02 0.86-1.15-1.44-3.6 0.29-5.19h-0.72l-0.4305-1.1505 0.72-1.01-0.44-0.86 1.01-0.87 0.58 0.29 0.72-1.44 0.29-2.3-0.58-1.3 0.29-1.15 0.86-0.72 0.58 2.59 0.43-0.72 1.01 0.43 0.14 1.01 0.15-0.57 1.44 0.86 1.15-0.43 0.57 1.29 0.58-0.14 0.72 1.15 0.29-0.29 0.14 0.72 1.01-0.43-0.72-0.86 1.44 0.57 1.3-0.43-0.87 0.58h0.87l0.28-2.45 0.87 1.44-1.01 0.86 0.14 0.87 0.15-1.15 0.29 1.58 2.73 1.01z"
  />
  </svg>